<?xml version="1.0" standalone="no"?>
<!DOCTYPE svg PUBLIC "-//W3C//DTD SVG 20010904//EN"
 "http://www.w3.org/TR/2001/REC-SVG-20010904/DTD/svg10.dtd">
<svg version="1.0" xmlns="http://www.w3.org/2000/svg"
 width="683.000000pt" height="683.000000pt" viewBox="0 0 683.000000 683.000000"
 preserveAspectRatio="xMidYMid meet">
<metadata>
Created by potrace 1.14, written by Peter Selinger 2001-2017
</metadata>
<g transform="translate(0.000000,683.000000) scale(0.100000,-0.100000)"
fill="#000000" stroke="none">
<path d="M3415 6320 c-37 -15 -68 -58 -76 -107 -10 -60 -11 -301 -2 -462 5
-102 10 -128 27 -154 42 -63 128 -59 177 6 24 32 24 34 27 329 3 330 2 340
-61 378 -34 21 -59 24 -92 10z"/>
<path d="M1420 5528 c-27 -22 -50 -62 -50 -86 0 -30 25 -79 59 -115 15 -17 20
-27 11 -25 -24 5 -24 -39 0 -64 12 -13 27 -35 32 -51 6 -15 19 -32 29 -38 10
-5 19 -14 19 -20 0 -13 147 -161 211 -212 48 -39 96 -48 121 -24 7 7 27 14 43
15 17 1 41 10 55 20 30 23 55 89 47 123 -4 14 -52 70 -108 125 -56 54 -131
130 -168 169 -36 38 -91 96 -122 129 -53 56 -59 59 -110 63 -34 2 -60 -1 -69
-9z"/>
<path d="M5161 5301 l-241 -241 0 -44 c0 -77 74 -137 142 -114 24 9 434 423
471 478 25 36 22 93 -6 126 -18 20 -35 28 -74 31 l-51 5 -241 -241z"/>
<path d="M3240 5300 c-259 -36 -507 -113 -680 -213 -247 -141 -278 -164 -433
-316 -233 -228 -382 -462 -482 -756 -114 -335 -123 -776 -24 -1129 17 -61 32
-124 33 -141 0 -18 6 -29 13 -28 7 2 10 -4 7 -12 -4 -8 -2 -15 4 -15 13 0 53
-100 45 -113 -4 -6 -1 -7 7 -2 10 6 12 4 7 -9 -4 -10 -3 -15 3 -11 11 7 43
-52 35 -65 -3 -5 -1 -11 4 -15 6 -3 8 -12 5 -19 -3 -8 -1 -17 5 -21 6 -3 11
-15 11 -25 0 -10 8 -25 18 -32 9 -7 18 -26 19 -42 1 -16 9 -36 18 -46 8 -9 15
-24 15 -33 0 -9 5 -19 10 -22 6 -4 18 -24 27 -46 8 -21 19 -39 23 -39 4 0 10
-12 13 -27 3 -16 29 -53 57 -83 28 -30 50 -56 50 -58 -4 -10 108 -132 121
-132 8 0 114 -86 207 -168 29 -26 65 -53 80 -61 15 -8 29 -17 32 -20 18 -23
168 -100 235 -121 22 -7 63 -20 90 -30 110 -39 234 -50 575 -54 l255 -3 110
34 c122 39 127 41 205 73 30 12 70 27 88 33 17 6 32 14 32 19 0 4 5 8 11 8 21
0 234 111 260 136 14 13 30 24 35 24 5 0 30 19 55 42 25 24 81 70 124 103 44
33 148 128 231 210 120 120 167 175 233 274 164 247 259 483 312 777 18 95 22
159 22 319 1 179 -2 214 -27 333 -32 160 -68 272 -130 410 -155 345 -436 659
-762 854 -206 122 -337 172 -600 228 -132 28 -171 32 -344 35 -107 2 -224 0
-260 -5z m110 -1880 l0 -1690 -33 0 c-91 0 -325 53 -472 107 -258 94 -531 293
-727 528 -51 61 -132 193 -189 310 -120 247 -169 464 -169 755 0 473 149 849
459 1161 295 296 581 438 1031 512 14 2 42 5 63 6 l37 1 0 -1690z m456 1655
c343 -69 624 -222 879 -480 131 -132 222 -260 300 -420 104 -214 147 -373 166
-613 22 -262 -13 -497 -111 -758 -71 -190 -209 -410 -344 -549 -37 -37 -56
-44 -56 -20 0 8 -4 15 -10 15 -5 0 -10 7 -10 15 0 8 -4 15 -10 15 -5 0 -10 9
-10 20 0 13 -7 20 -20 20 -13 0 -20 7 -20 20 0 19 -7 20 -120 20 l-120 0 0 40
0 40 -40 0 -40 0 0 40 c0 33 -3 40 -20 40 -18 0 -20 7 -20 75 0 68 2 75 20 75
18 0 20 7 20 80 0 73 -2 80 -20 80 -13 0 -20 7 -20 20 0 13 7 20 20 20 17 0
20 7 20 39 0 36 3 40 27 43 24 3 28 8 31 41 2 31 -1 37 -18 37 -15 0 -20 7
-20 25 0 14 -5 25 -11 25 -5 0 -7 5 -4 10 3 6 -5 14 -18 19 -19 8 -23 15 -20
35 3 16 10 23 17 19 6 -3 8 -3 4 1 -4 5 -2 20 3 34 12 32 13 33 -48 -44 -86
-109 -204 -239 -230 -252 -14 -8 -36 -12 -49 -9 -16 3 -24 0 -24 -10 0 -8 4
-12 9 -9 5 3 11 -11 14 -32 3 -20 6 -44 8 -52 3 -11 -5 -16 -26 -17 l-30 -2
30 9 30 8 -35 -1 c-28 -2 -36 -6 -38 -24 -3 -21 1 -23 37 -23 40 0 41 -1 41
-35 l0 -35 -80 0 c-73 0 -80 -2 -80 -20 0 -13 -7 -20 -20 -20 -22 0 -23 -3
-14 -49 4 -17 13 -31 20 -31 8 0 14 -9 14 -20 0 -13 -7 -20 -20 -20 -17 0 -20
-7 -20 -40 0 -33 -3 -40 -20 -40 -17 0 -20 -7 -20 -40 0 -22 -4 -40 -10 -40
-5 0 -10 18 -10 40 0 22 -4 40 -10 40 -6 0 -10 -32 -10 -75 0 -68 -2 -75 -20
-75 -11 0 -20 6 -21 13 0 6 -4 3 -9 -8 -5 -11 -9 -60 -9 -110 -1 -49 -6 -97
-11 -105 -6 -10 -10 320 -10 941 0 526 -3 1214 -7 1529 l-6 573 69 -7 c38 -4
123 -18 190 -31z m351 -2307 c-3 -8 -6 -5 -6 6 -1 11 2 17 5 13 3 -3 4 -12 1
-19z m433 -607 c0 -17 -18 -21 -24 -6 -3 9 0 15 9 15 8 0 15 -4 15 -9z m-80
-71 c0 -4 -7 -11 -16 -14 -13 -5 -14 -4 -6 7 7 8 8 18 4 22 -4 5 -1 5 6 1 6
-4 12 -11 12 -16z m-40 -24 c0 -3 -4 -8 -10 -11 -5 -3 -10 -1 -10 4 0 6 5 11
10 11 6 0 10 -2 10 -4z m-895 -326 c3 -5 1 -10 -4 -10 -6 0 -11 5 -11 10 0 6
2 10 4 10 3 0 8 -4 11 -10z"/>
<path d="M4651 3794 c0 -11 3 -14 6 -6 3 7 2 16 -1 19 -3 4 -6 -2 -5 -13z"/>
<path d="M3726 3755 c-3 -9 -6 -24 -5 -33 0 -9 5 -4 10 12 9 32 6 48 -5 21z"/>
<path d="M3915 3745 c-19 -16 -19 -16 3 -5 28 14 87 -3 102 -28 5 -9 10 -12
10 -6 1 37 -83 65 -115 39z"/>
<path d="M4444 3728 c-31 -36 -47 -58 -41 -58 3 0 20 18 37 40 34 43 36 55 4
18z"/>
<path d="M4262 3506 c-23 -24 -42 -52 -42 -62 0 -16 -2 -17 -10 -4 -8 12 -10
9 -10 -13 0 -16 -4 -26 -10 -22 -5 3 -10 -1 -10 -9 0 -9 -4 -16 -10 -16 -5 0
-19 -9 -31 -21 -11 -11 -29 -21 -40 -22 -14 -1 -18 -8 -17 -28 1 -15 -4 -35
-12 -46 -26 -33 144 143 176 183 28 35 69 104 62 104 -2 0 -22 -20 -46 -44z"/>
<path d="M4449 3483 c-25 -27 -56 -64 -68 -83 l-22 -35 23 30 c13 16 45 53 72
82 61 66 57 70 -5 6z"/>
<path d="M3796 3485 c9 -14 21 -25 27 -25 6 0 0 11 -13 25 -13 14 -25 25 -27
25 -2 0 4 -11 13 -25z"/>
<path d="M3848 3449 c9 -9 40 -14 95 -16 l82 -1 -82 8 c-46 5 -88 12 -95 16
-10 5 -10 4 0 -7z"/>
<path d="M4031 3223 c-7 -8 -11 -16 -8 -19 2 -2 10 2 17 11 17 20 9 27 -9 8z"/>
<path d="M4580 3215 c0 -4 9 -14 20 -23 11 -10 26 -35 34 -57 12 -32 15 -35
15 -15 0 35 -31 94 -52 98 -9 2 -17 0 -17 -3z"/>
<path d="M3995 3191 c-17 -28 -65 -125 -57 -116 32 36 80 115 72 120 -5 3 -11
1 -15 -4z"/>
<path d="M4343 3115 c0 -22 2 -30 4 -17 2 12 2 30 0 40 -3 9 -5 -1 -4 -23z"/>
<path d="M4803 3080 c0 -30 2 -43 4 -27 2 15 2 39 0 55 -2 15 -4 2 -4 -28z"/>
<path d="M4367 2991 c12 -10 19 -21 16 -25 -4 -3 -1 -6 5 -6 16 0 15 -43 0
-58 -10 -10 -10 -15 2 -22 8 -5 23 -10 32 -10 9 0 20 -9 23 -20 3 -11 15 -20
25 -20 13 0 17 -5 13 -20 -5 -18 0 -20 36 -20 34 0 41 3 41 20 0 13 7 20 20
20 11 0 20 5 20 11 0 16 22 35 50 42 30 8 38 14 70 52 l25 29 -37 -31 c-91
-77 -215 -65 -289 27 -18 22 -36 37 -40 34 -5 -3 -9 0 -9 5 0 6 -6 11 -12 11
-7 -1 -3 -9 9 -19z"/>
<path d="M4320 2975 c0 -8 4 -15 10 -15 5 0 7 7 4 15 -4 8 -8 15 -10 15 -2 0
-4 -7 -4 -15z"/>
<path d="M3591 2484 c0 -11 3 -14 6 -6 3 7 2 16 -1 19 -3 4 -6 -2 -5 -13z"/>
<path d="M3593 2350 c0 -25 2 -35 4 -22 2 12 2 32 0 45 -2 12 -4 2 -4 -23z"/>
<path d="M661 3504 c-56 -24 -79 -75 -58 -126 8 -18 12 -49 10 -68 -3 -20 2
-43 10 -54 27 -37 194 -46 427 -22 127 13 139 16 198 51 74 44 102 77 102 117
0 38 -24 84 -53 100 -29 17 -597 19 -636 2z"/>
<path d="M5634 3504 c-44 -22 -68 -70 -60 -120 4 -21 8 -56 9 -77 2 -23 11
-49 24 -62 l21 -24 248 5 c137 4 259 10 272 15 43 17 148 98 160 124 21 47 15
94 -17 126 l-29 29 -299 0 c-248 0 -303 -3 -329 -16z"/>
<path d="M1833 1913 c-17 -10 -59 -49 -94 -88 -34 -38 -122 -128 -194 -200
-178 -175 -196 -207 -160 -292 11 -25 12 -40 5 -48 -19 -23 0 -45 39 -45 46 0
75 20 159 107 37 38 77 75 90 82 12 6 22 16 22 22 0 10 130 149 248 264 46 46
52 57 52 94 0 84 -96 144 -167 104z"/>
<path d="M4973 1910 c-17 -10 -37 -29 -44 -42 -15 -28 -16 -105 -2 -119 7 -7
7 -19 -3 -37 -13 -27 -13 -41 1 -77 22 -59 30 -73 37 -69 4 3 8 0 8 -7 0 -6
24 -37 54 -68 29 -31 66 -71 82 -89 44 -50 120 -123 157 -149 51 -36 86 -39
127 -9 19 14 49 31 65 39 78 36 108 123 63 183 -12 16 -85 94 -163 174 -77 80
-164 171 -193 203 -79 89 -126 106 -189 67z"/>
<path d="M3415 1276 c-82 -36 -98 -104 -91 -371 3 -110 8 -213 12 -229 5 -20
4 -27 -4 -22 -16 10 -6 -127 10 -154 18 -29 70 -26 105 5 16 13 43 36 61 51
18 14 37 35 43 46 16 29 24 542 10 595 -18 68 -88 105 -146 79z"/>
</g>
</svg>
